PathFileType	4	(X/Y/Z)	S:\OneDrive - The University of Tokyo\ìåëÂéˆã∆\ÉoÉCÉÅÉJ\ë™íË\hirabayashi_2\Trimmed\Trimmed_BarL20kg1.trc
DataRate	CameraRate	NumFrames	NumMarkers	Units	OrigDataRate	OrigDataStartFrame	OrigNumFrames
200.00	200.00	       14	12	mm	200.00	77	       306
Frame#	Time	BarR0			BarR50			BarR100			BarR130			BarR180			BarR230			BarL0			BarL50			BarL100			BarL130			BarL180			BarL230			
		X1	Y1	Z1	X2	Y2	Z2	X3	Y3	Z3	X4	Y4	Z4	X5	Y5	Z5	X6	Y6	Z6	X7	Y7	Z7	X8	Y8	Z8	X9	Y9	Z9	X10	Y10	Z10	X11	Y11	Z11	X12	Y12	Z12	

77	0.380	-575.96613	2755.44580	1664.46887	-604.82117	2306.27979	1662.40930	-637.28650	1851.88416	1662.07288	-660.69775	1349.37476	1662.45471	-690.04431	902.69708	1662.65796	-713.73657	454.69016	1664.10254	-1113.49890	2807.72632	1664.59619	-1140.80005	2356.11768	1663.19153	-1171.39917	1905.91711	1660.97559	-1198.80505	1404.17761	1661.35608	-1227.46729	952.67316	1663.53613	-1244.69788	506.77148	1667.51477	
78	0.385	-575.95087	2755.41821	1664.46289	-604.81952	2306.23633	1662.42847	-637.26257	1851.82544	1662.05481	-660.70154	1349.36292	1662.45569	-690.08185	902.67651	1662.65942	-713.73328	454.69653	1664.10999	-1113.53821	2807.72095	1664.60913	-1140.80640	2356.10620	1663.20215	-1171.40283	1905.88062	1660.97937	-1198.80237	1404.15808	1661.35107	-1227.45715	952.65997	1663.54150	-1244.65784	506.73889	1667.52161	
79	0.390	-575.96478	2755.43018	1664.46594	-604.83191	2306.24194	1662.40698	-637.24750	1851.86719	1662.05701	-660.70709	1349.39648	1662.45496	-690.05939	902.68591	1662.65881	-713.71155	454.68646	1664.11157	-1113.56213	2807.72314	1664.59363	-1140.78784	2356.09473	1663.19763	-1171.40845	1905.90417	1660.97583	-1198.79382	1404.13416	1661.37317	-1227.42883	952.68274	1663.56836	-1244.67798	506.75409	1667.52991	
80	0.395	-575.95740	2755.42578	1664.46509	-604.79932	2306.24438	1662.40125	-637.27155	1851.87207	1662.05652	-660.67291	1349.39844	1662.45593	-690.04449	902.67999	1662.65894	-713.72375	454.68604	1664.10803	-1113.55945	2807.70728	1664.60120	-1140.78345	2356.12988	1663.19397	-1171.40930	1905.91577	1660.97839	-1198.80481	1404.18689	1661.37219	-1227.44824	952.70337	1663.55823	-1244.65820	506.73593	1667.52954	
81	0.400	-575.96863	2755.42261	1664.46838	-604.81616	2306.24902	1662.40527	-637.29547	1851.87402	1662.05786	-660.69556	1349.40869	1662.45959	-690.04803	902.66302	1662.65930	-713.73578	454.67783	1664.10913	-1113.54565	2807.70459	1664.59717	-1140.82971	2356.10645	1663.20105	-1171.40747	1905.88232	1660.97778	-1198.78735	1404.19849	1661.37744	-1227.44495	952.67987	1663.56409	-1244.67322	506.77548	1667.52344	
82	0.405	-575.95978	2755.44287	1664.46094	-604.79907	2306.25806	1662.40161	-637.23743	1851.87720	1662.05518	-660.71875	1349.38745	1662.45447	-690.05701	902.67664	1662.64612	-713.73590	454.71295	1664.09644	-1113.54504	2807.71167	1664.60022	-1140.77039	2356.11011	1663.20508	-1171.40027	1905.90930	1660.97070	-1198.80872	1404.17969	1661.36108	-1227.45068	952.68756	1663.55127	-1244.67639	506.76660	1667.52930	
83	0.410	-575.96619	2755.42993	1664.45654	-604.80481	2306.24121	1662.39856	-637.26001	1851.85498	1662.07666	-660.72125	1349.39661	1662.44495	-690.03613	902.68372	1662.64795	-713.72363	454.68958	1664.10339	-1113.54614	2807.72314	1664.61365	-1140.77393	2356.11792	1663.20117	-1171.40417	1905.88428	1660.98169	-1198.81177	1404.17249	1661.35376	-1227.46277	952.66595	1663.55823	-1244.66870	506.76050	1667.51404	
84	0.415	-575.95215	2755.40967	1664.46631	-604.83374	2306.24536	1662.42188	-637.27332	1851.87170	1662.07593	-660.70740	1349.36255	1662.44873	-690.04529	902.69727	1662.65881	-713.70856	454.66605	1664.11414	-1113.53052	2807.72583	1664.59753	-1140.78638	2356.11182	1663.21802	-1171.42517	1905.89856	1660.96899	-1198.81702	1404.13684	1661.39099	-1227.43774	952.70178	1663.57007	-1244.65845	506.75946	1667.52283	
85	0.420	-575.94830	2755.42139	1664.47388	-604.79706	2306.28638	1662.39050	-637.26495	1851.83264	1662.07520	-660.69745	1349.34802	1662.46143	-690.04858	902.68066	1662.63184	-713.72675	454.66931	1664.11011	-1113.55029	2807.72021	1664.59668	-1140.80579	2356.12695	1663.20447	-1171.42041	1905.90210	1660.97314	-1198.80530	1404.16089	1661.39355	-1227.45264	952.67792	1663.55408	-1244.67310	506.76865	1667.52161	
86	0.425	-575.95227	2755.42114	1664.46619	-604.83051	2306.25952	1662.41980	-637.28534	1851.88208	1662.05994	-660.71887	1349.40942	1662.47339	-690.06244	902.69965	1662.66260	-713.75281	454.70349	1664.09900	-1113.54443	2807.71313	1664.58350	-1140.79895	2356.12158	1663.20361	-1171.41846	1905.90527	1660.98120	-1198.82239	1404.17383	1661.36755	-1227.44299	952.67157	1663.55713	-1244.66980	506.76031	1667.53052	
87	0.430	-575.97144	2755.42334	1664.46497	-604.83167	2306.24512	1662.39758	-637.27997	1851.83948	1662.07349	-660.71106	1349.40906	1662.44922	-690.06909	902.66730	1662.66235	-713.70795	454.66562	1664.09998	-1113.58801	2807.73071	1664.57825	-1140.80823	2356.14355	1663.17859	-1171.40015	1905.89246	1660.97473	-1198.80725	1404.16626	1661.37146	-1227.46106	952.68909	1663.54590	-1244.69385	506.77567	1667.52112	
88	0.435	-575.95764	2755.41333	1664.46423	-604.79114	2306.24634	1662.38892	-637.33276	1851.89392	1662.05774	-660.71185	1349.38208	1662.43726	-690.06213	902.65662	1662.63733	-713.74194	454.70941	1664.09875	-1113.52979	2807.74243	1664.60254	-1140.78992	2356.11841	1663.19080	-1171.38586	1905.87781	1660.98499	-1198.78772	1404.17090	1661.36926	-1227.45764	952.69843	1663.52832	-1244.68738	506.75278	1667.52405	
89	0.440	-575.95740	2755.41772	1664.45972	-604.82190	2306.22656	1662.41077	-637.29144	1851.86499	1662.06299	-660.71802	1349.40613	1662.44641	-690.03931	902.65765	1662.65686	-713.74359	454.67209	1664.08887	-1113.51624	2807.71313	1664.61682	-1140.79956	2356.10571	1663.20105	-1171.39209	1905.88770	1660.98413	-1198.80896	1404.18359	1661.35437	-1227.44946	952.68683	1663.54688	-1244.67542	506.76373	1667.51819	
90	0.445	-575.96619	2755.44165	1664.46692	-604.81702	2306.25000	1662.40149	-637.28925	1851.88892	1662.04956	-660.70276	1349.37134	1662.45923	-690.04803	902.68378	1662.65649	-713.73846	454.66373	1664.10388	-1113.55920	2807.72681	1664.62549	-1140.78796	2356.11963	1663.18127	-1171.40991	1905.89392	1660.98608	-1198.80029	1404.17505	1661.36768	-1227.43823	952.69513	1663.55957	-1244.68103	506.73212	1667.53394	
